<mxfile host="app.diagrams.net" modified="2024-05-23T09:41:19.432Z" agent="Mozilla/5.0 (Windows NT 10.0; Win64; x64) AppleWebKit/537.36 (KHTML, like Gecko) Chrome/124.0.0.0 Safari/537.36" etag="xDi72J-64RzZY8vBlqst" version="24.4.6" type="device">
  <diagram name="Page-1" id="0SBXd49LUMcfFHOJyT-W">
    <mxGraphModel dx="1182" dy="870" grid="1" gridSize="10" guides="1" tooltips="1" connect="1" arrows="1" fold="1" page="1" pageScale="1" pageWidth="2336" pageHeight="1654" math="0" shadow="0">
      <root>
        <mxCell id="0" />
        <mxCell id="1" parent="0" />
        <mxCell id="LVzLQ8PIczJLZQD4RkMt-54" value="E61 Time Primitive (&lt;b&gt;date_naissance_ISO&lt;/b&gt;)" style="rounded=0;whiteSpace=wrap;html=1;strokeColor=#FF0000;" parent="1" vertex="1">
          <mxGeometry x="1450" y="610" width="140" height="60" as="geometry" />
        </mxCell>
        <mxCell id="k4S215dzI5b8nacuZygM-7" value="C13 Propositional Datation (&quot;Date de naissance&quot;)" style="rounded=0;whiteSpace=wrap;html=1;strokeColor=#007FFF;" parent="1" vertex="1">
          <mxGeometry x="1447.5" y="827" width="145" height="60" as="geometry" />
        </mxCell>
        <mxCell id="d6AP73_pV0fvFqpWeXNd-1" value="" style="endArrow=classic;html=1;rounded=0;exitX=0.5;exitY=1;exitDx=0;exitDy=0;entryX=0.5;entryY=0;entryDx=0;entryDy=0;" parent="1" target="k4S215dzI5b8nacuZygM-7" edge="1">
          <mxGeometry width="50" height="50" relative="1" as="geometry">
            <mxPoint x="1519.5" y="670" as="sourcePoint" />
            <mxPoint x="1520" y="830" as="targetPoint" />
          </mxGeometry>
        </mxCell>
        <mxCell id="d6AP73_pV0fvFqpWeXNd-2" value="sdh-int:P26 is datation of" style="rounded=0;whiteSpace=wrap;html=1;strokeColor=#FFFFFF;" parent="1" vertex="1">
          <mxGeometry x="1447.5" y="730" width="145" height="40" as="geometry" />
        </mxCell>
        <mxCell id="d6AP73_pV0fvFqpWeXNd-4" value="" style="endArrow=classic;html=1;rounded=0;entryX=0;entryY=0.5;entryDx=0;entryDy=0;exitX=1;exitY=0.5;exitDx=0;exitDy=0;" parent="1" target="d6AP73_pV0fvFqpWeXNd-5" edge="1">
          <mxGeometry width="50" height="50" relative="1" as="geometry">
            <mxPoint x="1590" y="639.5" as="sourcePoint" />
            <mxPoint x="1822" y="639.5" as="targetPoint" />
          </mxGeometry>
        </mxCell>
        <mxCell id="d6AP73_pV0fvFqpWeXNd-5" value="E52 Time-Span (&quot;Âge&quot;)" style="rounded=0;whiteSpace=wrap;html=1;" parent="1" vertex="1">
          <mxGeometry x="1850" y="610" width="140" height="60" as="geometry" />
        </mxCell>
        <mxCell id="d6AP73_pV0fvFqpWeXNd-6" value="crm:P82a begin of the begin" style="rounded=0;whiteSpace=wrap;html=1;strokeColor=#FFFFFF;" parent="1" vertex="1">
          <mxGeometry x="1640" y="620" width="160" height="40" as="geometry" />
        </mxCell>
        <mxCell id="2GZ2R_Td_zYV8zsPbMvq-1" value="C14 Datation Type (&quot;Unique/Borne inférieure/Borne supérieure&quot;)" style="rounded=0;whiteSpace=wrap;html=1;" vertex="1" parent="1">
          <mxGeometry x="1860" y="820" width="160" height="67" as="geometry" />
        </mxCell>
        <mxCell id="2GZ2R_Td_zYV8zsPbMvq-2" value="" style="endArrow=classic;html=1;rounded=0;exitX=1;exitY=0.5;exitDx=0;exitDy=0;entryX=0;entryY=0.5;entryDx=0;entryDy=0;" edge="1" parent="1" source="k4S215dzI5b8nacuZygM-7" target="2GZ2R_Td_zYV8zsPbMvq-1">
          <mxGeometry width="50" height="50" relative="1" as="geometry">
            <mxPoint x="1630" y="790" as="sourcePoint" />
            <mxPoint x="1630.5" y="947" as="targetPoint" />
          </mxGeometry>
        </mxCell>
        <mxCell id="2GZ2R_Td_zYV8zsPbMvq-3" value="sdh-int:P27 has datation type" style="rounded=0;whiteSpace=wrap;html=1;strokeColor=#FFFFFF;" vertex="1" parent="1">
          <mxGeometry x="1647.5" y="837" width="162.5" height="40" as="geometry" />
        </mxCell>
        <mxCell id="2GZ2R_Td_zYV8zsPbMvq-4" value="C14 Datation Type (&quot;Certaine/Reconstituée/Postulée&quot;)" style="rounded=0;whiteSpace=wrap;html=1;" vertex="1" parent="1">
          <mxGeometry x="990" y="823.5" width="190" height="66.5" as="geometry" />
        </mxCell>
        <mxCell id="2GZ2R_Td_zYV8zsPbMvq-5" value="" style="endArrow=classic;html=1;rounded=0;exitX=0;exitY=0.5;exitDx=0;exitDy=0;entryX=1;entryY=0.5;entryDx=0;entryDy=0;" edge="1" parent="1" target="2GZ2R_Td_zYV8zsPbMvq-4" source="k4S215dzI5b8nacuZygM-7">
          <mxGeometry width="50" height="50" relative="1" as="geometry">
            <mxPoint x="760" y="860.5" as="sourcePoint" />
            <mxPoint x="797.5" y="950.5" as="targetPoint" />
          </mxGeometry>
        </mxCell>
        <mxCell id="2GZ2R_Td_zYV8zsPbMvq-6" value="sdh-int:P27 has datation type" style="rounded=0;whiteSpace=wrap;html=1;strokeColor=#FFFFFF;" vertex="1" parent="1">
          <mxGeometry x="1230" y="837" width="162.5" height="40" as="geometry" />
        </mxCell>
      </root>
    </mxGraphModel>
  </diagram>
</mxfile>
